<svg width="1080" height="80" viewBox="0 0 1080 80" fill="none" xmlns="http://www.w3.org/2000/svg">
<path d="M103.779 36.4624C103.694 36.4624 103.626 36.3907 103.626 36.3077V35.2692H103.329C103.256 35.2692 103.194 35.208 103.194 35.1341C103.194 35.0579 103.257 34.9981 103.329 34.9981H104.228C104.3 34.9981 104.362 35.0579 104.362 35.1341C104.362 35.208 104.3 35.2692 104.228 35.2692H103.93V36.3077C103.93 36.3907 103.862 36.4624 103.779 36.4624H103.779ZM106 36.4624C105.917 36.4624 105.849 36.3907 105.849 36.3077V35.4042L105.463 36.4057C105.45 36.4384 105.418 36.4623 105.381 36.4623C105.345 36.4623 105.313 36.4394 105.3 36.4057L104.913 35.4042V36.3077C104.913 36.3907 104.848 36.4624 104.765 36.4624C104.679 36.4624 104.61 36.3907 104.61 36.3077V35.2346C104.61 35.0949 104.722 34.9821 104.858 34.9821C104.965 34.9821 105.054 35.0501 105.091 35.146L105.381 35.9017L105.674 35.146C105.707 35.0501 105.8 34.9821 105.905 34.9821C106.043 34.9821 106.154 35.0953 106.154 35.2346V36.3077C106.154 36.3908 106.086 36.4624 106 36.4624L106 36.4624ZM24.764 34.5412C24.764 34.022 24.9256 33.5408 25.1991 33.1416C24.3763 33.3839 23.7717 34.1362 23.7717 35.0373V36.6251L24.764 36.6748V34.5412ZM23.7715 45.459C23.7715 46.3602 24.3761 47.1125 25.2 47.3548C24.9254 46.9556 24.7639 46.4744 24.7639 45.9552V42.9772H23.7715L23.7715 45.459ZM26.2529 42.9777H25.2605V45.9558C25.2605 46.8569 25.8651 47.6092 26.6879 47.8515C26.4144 47.4523 26.2529 46.9711 26.2529 46.4519V42.9777ZM26.2529 34.0448C26.2529 33.5256 26.4144 33.0444 26.6879 32.6452C25.8651 32.8876 25.2605 33.6398 25.2605 34.541V36.6998L26.2529 36.7495V34.0448ZM15.0635 33.4092C14.3377 33.8418 13.8462 34.6276 13.8462 35.5333V44.9626C13.8462 45.8696 14.3377 46.6542 15.0635 47.0869C14.9148 46.728 14.8383 46.3434 14.8385 45.9549V34.5411C14.8385 34.1407 14.9193 33.7588 15.0635 33.4092L15.0635 33.4092ZM16.3275 33.5487C16.3275 33.1483 16.4083 32.7664 16.5525 32.4167C15.8267 32.8495 15.3352 33.6341 15.3352 34.541V45.956C15.3352 47.0222 16.0113 47.9233 16.9563 48.2741C16.564 47.7699 16.3275 47.1387 16.3275 46.4521V33.5487Z" fill="#EE2841"/>
<path d="M28.7343 32.0598C27.6381 32.0598 26.7496 32.9483 26.7496 34.0444V37.2706L21.7869 37.0226V33.5484C21.7869 32.1788 20.6758 31.0676 19.305 31.0676C17.9342 31.0676 16.8242 32.1788 16.8242 33.5484V46.4519C16.8242 47.8227 17.9342 48.9327 19.305 48.9327C20.6758 48.9327 21.7869 47.8227 21.7869 46.4519V42.4816H26.7496V46.4519C26.7496 47.5481 27.6381 48.4365 28.7343 48.4365C29.8304 48.4365 30.7189 47.5481 30.7189 46.4519V34.0446C30.7189 32.9484 29.8304 32.0599 28.7343 32.0599V32.0598ZM45.8693 44.1459V40.4709H40.5086V44.1459C40.5086 44.5382 40.1889 44.8717 39.7966 44.8717C39.3905 44.8717 39.0559 44.5382 39.0559 44.1459V35.7632C39.0559 35.3709 39.3905 35.0374 39.7828 35.0374C40.1889 35.0374 40.5086 35.3709 40.5086 35.7632V39.1774H45.8693V35.7632C45.8693 35.3709 46.1889 35.0374 46.5963 35.0374C47.0024 35.0374 47.322 35.3709 47.322 35.7632V44.1459C47.322 44.5382 47.0024 44.8717 46.5963 44.8717C46.1889 44.8717 45.8693 44.5382 45.8693 44.1459ZM48.3487 41.2838C48.3487 39.2645 49.7148 37.6088 51.8933 37.6088C54.0867 37.6088 55.4379 39.2645 55.4379 41.2838C55.4379 43.318 54.0868 44.9738 51.8933 44.9738C49.7148 44.9738 48.3487 43.318 48.3487 41.2838V41.2838ZM54.0729 41.2838C54.0729 39.9615 53.3021 38.7707 51.8933 38.7707C50.4983 38.7707 49.7148 39.9615 49.7148 41.2838C49.7148 42.6199 50.4983 43.8119 51.8933 43.8119C53.3021 43.8119 54.0729 42.6199 54.0729 41.2838ZM63.0376 37.6086C65.1445 37.6086 66.4519 39.2505 66.4519 41.0955C66.4519 41.4878 66.1749 41.7197 65.6811 41.7197H60.9019C61.0034 42.9105 61.8757 43.8994 63.2845 43.8994C63.8799 43.8994 64.5053 43.71 65.028 43.3317C65.1007 43.2741 65.2022 43.26 65.3188 43.26C65.6095 43.26 65.8415 43.4919 65.8415 43.7827C65.8415 43.9708 65.7538 44.1162 65.6096 44.2188C64.9115 44.7266 64.083 44.9735 63.1542 44.9735C61.0622 44.9735 59.5218 43.4919 59.5218 41.2835C59.5218 39.2504 60.9895 37.6085 63.0376 37.6085V37.6086ZM60.888 40.7758H65.1734C65.1446 39.8458 64.5192 38.6839 63.0376 38.6839C61.6288 38.6839 60.9596 39.8169 60.888 40.7758ZM67.2838 44.2184V35.6903C67.2838 35.328 67.5746 35.0372 67.9381 35.0372C68.2865 35.0372 68.5911 35.328 68.5911 35.6903V44.2184C68.5911 44.5818 68.2865 44.8726 67.9381 44.8726C67.852 44.8729 67.7668 44.8563 67.6873 44.8235C67.6077 44.7908 67.5355 44.7426 67.4746 44.6818C67.4138 44.6209 67.3656 44.5487 67.3329 44.4691C67.3001 44.3896 67.2835 44.3044 67.2838 44.2184ZM69.432 43.7244C69.432 43.4049 69.6789 43.1579 69.9985 43.1579C70.115 43.1579 70.2304 43.2017 70.3181 43.2593C70.8558 43.6516 71.5527 43.9274 72.2935 43.9274C73.2812 43.9274 73.8039 43.5212 73.8039 42.9247C73.8039 42.2277 73.0054 41.9958 72.1043 41.7927C70.9135 41.5157 69.5197 41.1962 69.5197 39.6858C69.5197 38.5677 70.4773 37.6089 72.192 37.6089C73.1658 37.6089 73.9354 37.8984 74.5308 38.3347C74.6612 38.4361 74.7627 38.5816 74.7627 38.7708C74.7627 39.0603 74.5158 39.3074 74.2262 39.3074C74.1246 39.3074 74.0081 39.2645 73.9354 39.206C73.4854 38.8725 72.8751 38.6694 72.207 38.6694C71.3208 38.6694 70.7681 39.0179 70.7681 39.5844C70.7681 40.1948 71.5239 40.3979 72.395 40.601C73.6158 40.8767 75.0685 41.2114 75.0685 42.8233C75.0685 44.029 74.0808 44.9741 72.2358 44.9741C71.262 44.9741 70.3908 44.7271 69.6789 44.1894C69.5335 44.088 69.432 43.9137 69.432 43.7244ZM76.7837 43.1433C77.2776 43.1433 77.6987 43.5506 77.6987 44.0445C77.6987 44.5384 77.2775 44.9595 76.7837 44.9595C76.2898 44.9595 75.8825 44.5383 75.8825 44.0445C75.8825 43.5506 76.2898 43.1433 76.7837 43.1433ZM84.4864 41.2838C84.4864 39.2645 85.8514 37.6088 88.031 37.6088C90.2245 37.6088 91.5756 39.2645 91.5756 41.2838C91.5756 43.318 90.2245 44.9738 88.031 44.9738C85.8514 44.9738 84.4864 43.318 84.4864 41.2838V41.2838ZM90.2106 41.2838C90.2106 39.9615 89.4399 38.7707 88.031 38.7707C86.636 38.7707 85.8514 39.9615 85.8514 41.2838C85.8514 42.6199 86.636 43.8119 88.031 43.8119C89.4399 43.8119 90.2106 42.6199 90.2106 41.2838ZM102.393 39.7293V44.219C102.393 44.5813 102.087 44.872 101.725 44.872C101.376 44.872 101.085 44.5813 101.085 44.219V40.1216C101.085 39.3082 100.722 38.9159 99.8645 38.9159C99.1526 38.9159 98.4557 39.7166 98.1211 40.2255V44.219C98.1214 44.3048 98.1048 44.3899 98.0721 44.4693C98.0394 44.5487 97.9913 44.6209 97.9306 44.6816C97.8699 44.7423 97.7977 44.7904 97.7183 44.8231C97.6389 44.8558 97.5539 44.8724 97.468 44.872C97.1195 44.872 96.8137 44.5813 96.8137 44.219V40.1216C96.8137 39.3082 96.4653 38.9159 95.5791 38.9159C94.8961 38.9159 94.2141 39.7651 93.8645 40.2728V44.2189C93.8645 44.5812 93.5599 44.872 93.2114 44.872C92.848 44.872 92.5572 44.5812 92.5572 44.2189V38.3643C92.5572 38.0009 92.848 37.7101 93.1964 37.7101C93.5599 37.7101 93.8645 38.0009 93.8645 38.3643V38.7705C94.1553 38.3343 95.0853 37.6085 96.1307 37.6085C97.1922 37.6085 97.8164 38.1601 98.0345 38.9159C98.4407 38.2616 99.3903 37.6085 100.422 37.6085C101.715 37.6085 102.393 38.3205 102.393 39.7293Z" fill="#EE2841"/>
<path d="M81.6171 37.6083C82.6198 37.6083 83.3167 37.9279 83.8544 38.4218C83.9698 38.5232 84.0575 38.6975 84.0575 38.858C84.0575 39.1914 83.7956 39.4533 83.4771 39.4533C83.3167 39.4533 83.1863 39.3945 83.0836 39.3078C82.6775 38.9305 82.2275 38.7701 81.6748 38.7701C80.2948 38.7701 79.4086 39.8305 79.4086 41.2832C79.4086 42.7359 80.296 43.7651 81.6748 43.8113C82.606 43.844 83.544 43.1663 84.2975 41.9767C84.391 41.8289 84.5282 41.5543 84.6413 41.4113C84.8548 41.1414 85.0071 41.2706 85.1329 41.4015C85.3636 41.6425 85.3613 42.2149 85.2114 42.4965C84.7879 43.2869 84.4314 43.655 84.0264 44.0507C83.4621 44.5977 82.6198 44.9726 81.6171 44.9726C79.4963 44.9726 78.0436 43.3896 78.0436 41.2826C78.0436 39.1769 79.4963 37.6076 81.6171 37.6076V37.6083ZM60.4556 43.7235C60.4556 43.9705 59.7483 44.5231 59.2395 44.7701C58.9499 44.9107 58.6579 44.9732 58.2368 44.9732C57.1326 44.9732 56.566 44.3489 56.566 43.2447V38.9304H55.8979C55.5933 38.9304 55.3164 38.6685 55.3164 38.3489C55.3164 38.0444 55.5933 37.7824 55.8979 37.7824H56.566V36.4462C56.5657 36.3602 56.5824 36.275 56.6151 36.1954C56.6479 36.1159 56.696 36.0436 56.7569 35.9828C56.8177 35.922 56.8899 35.8738 56.9695 35.8411C57.049 35.8083 57.1342 35.7916 57.2202 35.792C57.5687 35.792 57.8733 36.0828 57.8733 36.4462V37.7824H58.7895C59.108 37.7824 59.3699 38.0444 59.3699 38.3489C59.3699 38.6685 59.108 38.9304 58.7895 38.9304H57.8733V42.954C57.8733 43.4479 58.1064 43.8113 58.5564 43.8113C59.356 43.8113 59.9849 42.5697 60.3391 42.5697C60.6726 42.5697 60.4556 43.404 60.4556 43.7236" fill="#EE2841"/>
<path d="M301.395 41.4188L297.893 32.6133L294.411 41.3603C296.739 41.2841 299.069 41.3036 301.395 41.4188ZM330.46 50.3464C322.955 47.0828 314.515 44.6659 304.597 43.85L307.617 51.1841H305.28L302.299 43.6925C299.373 43.5264 296.441 43.5031 293.513 43.6227L290.504 51.1841H288.165L291.227 43.7435C280.707 44.4334 271.748 46.9261 263.878 50.3442V49.8823C269.13 46.9509 274.324 44.7626 279.931 43.3333V38.8316L273.617 29.1374H275.963L280.974 37.1923L285.987 29.1382H288.33L282.017 38.8316L282.015 42.8399C285.225 42.1432 288.579 41.6827 292.165 41.4645L297.37 28.8165H298.413L303.659 41.565C307.179 41.8462 310.48 42.3644 313.644 43.1225V30.824H308.484V29.1374H320.937V30.8247H315.78V43.6767C320.868 45.0978 325.641 47.1646 330.46 49.8867V50.3464ZM338.804 29.1374H326.352V30.8247H331.512V46.0255H333.646V30.8247H338.804V29.1374ZM267.323 46.0255L265.188 46.027V37.694H255.981V46.0255H253.846V29.1374H255.981V36.0089H265.188V29.1374H267.323V46.0255ZM344.436 30.4528C344.335 30.3928 344.17 30.3628 343.943 30.3628H343.595V31.2087H343.963C344.138 31.2087 344.266 31.19 344.353 31.1562C344.427 31.1296 344.491 31.0798 344.534 31.0142C344.577 30.9487 344.598 30.871 344.594 30.7925C344.594 30.6238 344.54 30.5113 344.436 30.4528ZM343.997 30.0876C344.283 30.0876 344.494 30.1154 344.63 30.1693C344.87 30.2698 344.988 30.4678 344.988 30.7587C344.988 30.965 344.913 31.1187 344.763 31.2177C344.66 31.2769 344.545 31.3144 344.427 31.328C344.612 31.3564 344.742 31.4322 344.828 31.5552C344.904 31.6608 344.947 31.7866 344.952 31.9166V32.0854C344.952 32.1401 344.954 32.1979 344.958 32.2571C344.958 32.2989 344.964 32.3405 344.978 32.3801L344.993 32.4086H344.612L344.605 32.3861C344.603 32.3778 344.603 32.3673 344.601 32.3583L344.591 32.2833V32.0989C344.591 31.8319 344.516 31.6549 344.371 31.5687C344.283 31.5199 344.134 31.4937 343.916 31.4937H343.595V32.4086H343.184V30.0876H343.997ZM342.754 29.9676C342.582 30.135 342.447 30.3358 342.356 30.5574C342.264 30.7791 342.219 31.017 342.223 31.2567C342.223 31.7629 342.398 32.1941 342.751 32.5518C342.916 32.725 343.116 32.8621 343.338 32.9542C343.559 33.0464 343.797 33.0917 344.037 33.0872C344.541 33.0872 344.97 32.9102 345.325 32.5518C345.678 32.1948 345.854 31.7629 345.854 31.2567C345.858 31.0171 345.813 30.7793 345.722 30.5575C345.631 30.3358 345.496 30.1349 345.325 29.9669C345.158 29.7953 344.957 29.6596 344.736 29.568C344.514 29.4765 344.276 29.431 344.037 29.4344C343.798 29.4309 343.561 29.4764 343.341 29.568C343.12 29.6595 342.921 29.7953 342.754 29.9669L342.754 29.9676ZM345.532 32.7528C345.339 32.954 345.107 33.1131 344.85 33.2203C344.592 33.3274 344.315 33.3801 344.037 33.3752C343.452 33.3752 342.953 33.169 342.541 32.7528C342.343 32.5574 342.186 32.3239 342.081 32.0663C341.976 31.8088 341.924 31.5326 341.929 31.2544C341.929 30.6733 342.135 30.1746 342.548 29.7621C342.959 29.3512 343.456 29.145 344.037 29.145C344.623 29.145 345.121 29.3512 345.532 29.7629C345.733 29.9553 345.892 30.1871 345.998 30.4438C346.105 30.7005 346.158 30.9765 346.153 31.2544C346.153 31.8379 345.947 32.3373 345.532 32.7528Z" fill="#4B77A9"/>
<path d="M522.175 60.8737V60.1779H519.657V55.2412H518.861V60.8737H522.175Z" fill="#0E7755"/>
<path d="M571.94 55.9039V60.8737H572.735V55.9039H574.657V55.2412H570.018V55.9039H571.94Z" fill="#0E7755"/>
<path d="M576.28 59.6145C576.28 59.6145 576.877 60.2109 577.705 60.2109C578.235 60.2109 578.666 59.9127 578.666 59.3826C578.666 58.1567 575.949 58.4217 575.949 56.6988C575.949 55.8374 576.711 55.1416 577.771 55.1416C578.831 55.1416 579.362 55.7049 579.362 55.7049L578.997 56.3675C578.997 56.3675 578.467 55.8705 577.771 55.8705C577.175 55.8705 576.744 56.235 576.744 56.6988C576.744 57.8585 579.461 57.5603 579.461 59.3826C579.461 60.244 578.798 60.973 577.672 60.973C576.479 60.973 575.816 60.244 575.816 60.244L576.28 59.6145Z" fill="#0E7755"/>
<path d="M499.711 32.7773H493.846V49.5756H495.768V43.1147H499.711C502.858 43.1147 504.946 41.0274 504.946 37.9129C504.946 34.8316 502.825 32.7773 499.711 32.7773ZM495.768 34.5334H499.512C501.665 34.5334 502.991 35.8255 502.991 37.9129C502.991 40.0334 501.665 41.3587 499.479 41.3587H495.768V34.5334Z" fill="#0E7755"/>
<path d="M513.858 32.7773L507.696 49.5756H509.717L511.605 44.3075H518.033L519.922 49.5756H521.943L515.813 32.7773H513.858ZM517.337 42.7171L512.069 42.5515L514.389 36.8195C514.587 36.3225 514.819 35.5936 514.952 35.0966C515.051 35.5605 515.25 36.3225 515.416 36.8195L517.337 42.7171Z" fill="#0E7755"/>
<path d="M534.367 42.1869C536.223 41.5905 537.416 39.8344 537.416 37.6477C537.416 35.6266 536.455 33.9699 534.831 33.2742C534.169 32.976 533.407 32.8103 531.684 32.8103H526.681V49.6086H528.602V42.6507H532.545L536.289 49.6086H538.476L534.765 42.7501C534.566 42.4851 534.467 42.2863 534.367 42.1869ZM535.494 37.6808C535.494 39.6688 534.301 40.8947 532.379 40.8947H528.602V34.5332H531.783C533.075 34.5332 533.605 34.6657 534.069 34.9308C534.997 35.3947 535.494 36.3886 535.494 37.6808Z" fill="#0E7755"/>
<path d="M552.458 32.7773L548.018 39.9671H545.434V32.7773H543.512V49.5756H545.434V41.69H548.018L552.723 49.5756H554.976L549.609 40.7623L554.645 32.7773H552.458Z" fill="#0E7755"/>
<path d="M494.641 57.6933V55.2415H493.846V60.874H494.641V58.389H497.557V60.874H498.352V55.2415H497.557V57.6933H494.641Z" fill="#0E7755"/>
<path d="M503.19 55.1416C504.813 55.1416 506.072 56.4006 506.072 58.0242C506.072 59.6808 504.813 60.973 503.19 60.973C501.566 60.973 500.307 59.6808 500.307 58.0242C500.307 56.4006 501.566 55.1416 503.19 55.1416ZM503.19 60.244C504.349 60.244 505.277 59.2832 505.277 58.0242C505.277 56.7982 504.349 55.8705 503.19 55.8705C502.03 55.8705 501.102 56.7982 501.102 58.0242C501.102 59.2832 502.063 60.244 503.19 60.244Z" fill="#0E7755"/>
<path d="M509.154 55.9041V60.874H509.949V55.9041H511.904V55.2415H507.232V55.9041H509.154Z" fill="#0E7755"/>
<path d="M516.907 60.874V60.1782H514.289V58.3559H516.31V57.6933H514.289V55.9041H516.774V55.2415H513.494V60.874H516.907Z" fill="#0E7755"/>
<path d="M523.897 59.6145C523.897 59.6145 524.494 60.2109 525.322 60.2109C525.852 60.2109 526.283 59.9127 526.283 59.3826C526.283 58.1567 523.566 58.4217 523.566 56.6988C523.566 55.8374 524.328 55.1416 525.388 55.1416C526.449 55.1416 526.979 55.7049 526.979 55.7049L526.614 56.3675C526.614 56.3675 526.084 55.8705 525.388 55.8705C524.792 55.8705 524.361 56.235 524.361 56.6988C524.361 57.8585 527.078 57.5603 527.078 59.3826C527.078 60.244 526.416 60.973 525.289 60.973C524.096 60.973 523.434 60.244 523.434 60.244L523.897 59.6145Z" fill="#0E7755"/>
<path d="M533.042 57.8258C533.042 57.8258 532.313 57.5607 532.313 56.5667C532.313 55.639 533.042 55.1089 534.036 55.1089C534.334 55.1089 534.732 55.2083 534.732 55.2083L534.533 55.8378C534.533 55.8378 534.301 55.8047 534.102 55.8047C533.539 55.8047 533.108 56.1029 533.108 56.6661C533.108 57.0306 533.274 57.5607 534.135 57.5607H535.196V56.7987H535.958V57.5607H536.72V58.2565H535.958V59.0185C535.958 60.2776 535.229 61.0065 534.003 61.0065C532.843 61.0065 532.048 60.2776 532.048 59.3167C532.048 58.6541 532.413 58.0577 533.042 57.8258ZM534.003 60.2444C534.732 60.2444 535.163 59.8469 535.163 58.9523V58.2234H534.069C533.274 58.2234 532.81 58.5878 532.81 59.2173C532.843 59.7806 533.307 60.2444 534.003 60.2444Z" fill="#0E7755"/>
<path d="M541.027 55.2415H542.75C543.346 55.2415 543.578 55.2746 543.81 55.374C544.373 55.5728 544.771 56.1692 544.771 56.8981C544.771 57.627 544.373 58.2234 543.744 58.4222C543.744 58.4222 543.81 58.4884 543.91 58.6872L545.102 60.874H544.208L543.015 58.621H541.822V60.874H541.027V55.2415ZM542.949 57.9252C543.578 57.9252 543.943 57.5276 543.943 56.8981C543.943 56.4674 543.777 56.2023 543.479 56.0366C543.313 55.9704 543.148 55.9041 542.717 55.9041H541.822V57.9252H542.949Z" fill="#0E7755"/>
<path d="M550.338 60.874V60.1782H547.72V58.3559H549.741V57.6933H547.72V55.9041H550.205V55.2415H546.925V60.874H550.338Z" fill="#0E7755"/>
<path d="M569.389 46.8586V43.4128L571.94 44.6718V48.1176L569.389 46.8586ZM572.735 44.6718L575.286 43.4128V46.8586L572.735 48.1176V44.6718ZM566.042 45.1688V41.723L568.594 42.982V46.4278L566.042 45.1688ZM576.082 43.0152L578.633 41.7561V45.2019L576.082 46.461V43.0152ZM562.696 43.5122V40.0664L565.247 41.3254V44.7712L562.696 43.5122ZM579.428 41.3254L581.979 40.0664V43.5122L579.428 44.7712V41.3254ZM569.389 42.5182V39.0724L571.94 40.3314V43.7772L569.389 42.5182ZM572.735 40.3646L575.286 39.1055V42.5513L572.735 43.8104V40.3646ZM559.35 41.8224V38.4097L561.901 39.6688V43.1146L559.35 41.8224ZM582.807 39.6688L585.359 38.4097V41.8555L582.807 43.1146V39.6688ZM566.042 40.8616V37.4158L568.594 38.6748V42.1206L566.042 40.8616ZM576.082 38.6748L578.633 37.4158V40.8616L576.082 42.1206V38.6748ZM562.696 39.1718V35.7591L565.247 37.0182V40.464L562.696 39.1718ZM579.428 37.0182L581.979 35.7591V39.2049L579.428 40.464V37.0182ZM569.389 38.2109V34.7651L571.94 36.0242V39.47L569.389 38.2109ZM572.735 36.0242L575.286 34.7651V38.2109L572.735 39.47V36.0242ZM559.35 37.5151V34.0693L561.901 35.3284V38.7742L559.35 37.5151ZM582.807 35.3615L585.359 34.1025V37.5483L582.807 38.8073V35.3615ZM566.042 36.5212V33.0754L568.594 34.3344V37.7802L566.042 36.5212ZM576.082 34.3675L578.633 33.1085V36.5543L576.082 37.8133V34.3675ZM562.696 34.8645V31.4187L565.247 32.6778V36.1236L562.696 34.8645ZM579.428 32.6778L581.979 31.4187V34.8645L579.428 36.1236V32.6778ZM569.389 33.8706V30.4248L571.94 31.6838V35.1296L569.389 33.8706ZM572.735 31.7169L575.286 30.4579V33.9037L572.735 35.1627V31.7169ZM566.042 32.2139V28.7681L568.594 30.0272V33.473L566.042 32.2139ZM576.082 30.0272L578.633 28.7681V32.2139L576.082 33.473V30.0272ZM562.696 30.5241V27.0783L565.247 28.3374V31.7832L562.696 30.5241ZM579.428 28.3705L581.979 27.1115V30.5573L579.428 31.8163V28.3705ZM569.389 29.5302V26.1175L571.94 27.3765V30.8223L569.389 29.5302ZM572.735 27.3765L575.286 26.1175V29.5633L572.735 30.8223V27.3765ZM566.042 27.8735V24.4277L568.594 25.6868V29.1326L566.042 27.8735ZM576.082 25.7199L578.633 24.4609V27.9067L576.082 29.1657V25.7199ZM569.389 25.2229V21.7771L571.94 23.0362V26.482L569.389 25.2229ZM572.735 23.0693L575.286 21.8102V25.256L572.735 26.5151V23.0693ZM569.886 21.1476L572.338 19.9217L574.789 21.1476L572.338 22.3735L569.886 21.1476ZM572.338 19.0271L568.594 20.8825V24.8253L565.247 23.1687V27.5091L561.901 25.8524V34.5001L558.554 32.8434V42.3857L571.973 49.0785V53.1538H572.768V49.0122L586.187 42.3194V32.7772L582.841 34.4338V25.8193L579.494 27.4759V23.1687L576.148 24.8253V20.8825L572.338 19.0271Z" fill="#0E7755"/>
<path d="M552.325 59.6145C552.325 59.6145 552.922 60.2109 553.75 60.2109C554.28 60.2109 554.711 59.9127 554.711 59.3826C554.711 58.1567 551.994 58.4217 551.994 56.6988C551.994 55.8374 552.756 55.1416 553.816 55.1416C554.877 55.1416 555.407 55.7049 555.407 55.7049L555.042 56.3675C555.042 56.3675 554.512 55.8705 553.816 55.8705C553.22 55.8705 552.789 56.235 552.789 56.6988C552.789 57.8585 555.506 57.5603 555.506 59.3826C555.506 60.244 554.844 60.973 553.717 60.973C552.524 60.973 551.862 60.244 551.862 60.244L552.325 59.6145Z" fill="#0E7755"/>
<path d="M559.979 55.1416C561.603 55.1416 562.862 56.4006 562.862 58.0242C562.862 59.6808 561.603 60.973 559.979 60.973C558.355 60.973 557.096 59.6808 557.096 58.0242C557.096 56.4006 558.355 55.1416 559.979 55.1416ZM559.979 60.244C561.139 60.244 562.066 59.2832 562.066 58.0242C562.066 56.7982 561.139 55.8705 559.979 55.8705C558.819 55.8705 557.892 56.7982 557.892 58.0242C557.892 59.2832 558.819 60.244 559.979 60.244Z" fill="#0E7755"/>
<path d="M564.816 55.2415H566.539C567.136 55.2415 567.368 55.2746 567.6 55.374C568.163 55.5728 568.56 56.1692 568.56 56.8981C568.56 57.627 568.163 58.2234 567.533 58.4222C567.533 58.4222 567.6 58.4884 567.699 58.6872L568.892 60.874H567.997L566.804 58.621H565.612V60.874H564.816V55.2415ZM566.738 57.9252C567.368 57.9252 567.732 57.5276 567.732 56.8981C567.732 56.4674 567.566 56.2023 567.268 56.0366C567.103 55.9704 566.937 55.9041 566.506 55.9041H565.612V57.9252H566.738Z" fill="#0E7755"/>
<path d="M747.421 30.3599V49.6399H753.133V34.6445L747.421 30.3599ZM745.158 32.0514V49.6399H746.346V31.1495L745.158 32.0514ZM742.896 49.6399H744.084V32.897L742.896 33.7424V49.6399ZM740.634 49.6399H741.821V34.5884L740.634 35.4903V49.6399ZM754.208 38.9853V49.6399H759.921V43.2696L754.208 38.9853ZM738.371 40.6766V49.6399H739.559V39.8309L738.371 40.6766ZM736.109 49.6399H737.296V41.5223L736.109 42.368V49.6399ZM733.846 49.6399H735.034V43.2133L733.846 44.1153V49.6399Z" fill="#EB0029"/>
<path d="M774.626 41.0709C772.931 41.0709 771.856 40.1127 771.856 38.2523V34.6443H773.269V38.2523C773.269 39.2668 773.778 39.8307 774.683 39.8307C775.531 39.8307 776.041 39.267 776.041 38.2523V34.6443H777.455V38.1959C777.455 40.169 776.323 41.0709 774.626 41.0709ZM781.639 41.0709C780.679 41.0709 779.717 40.7328 778.982 40.0564L779.774 39.098C780.34 39.5489 780.962 39.8307 781.697 39.8307C782.262 39.8307 782.601 39.6053 782.601 39.267V39.2106C782.601 38.8724 782.376 38.7032 781.302 38.4214C780.057 38.0832 779.208 37.6886 779.208 36.4485C779.208 35.2644 780.112 34.5317 781.414 34.5317C782.376 34.5317 783.167 34.8136 783.789 35.3208L783.054 36.392C782.546 35.9973 781.979 35.7718 781.414 35.7718C780.905 35.7718 780.622 35.9973 780.622 36.3355C780.622 36.7301 780.905 36.8994 781.979 37.1812C783.281 37.5193 784.016 37.9705 784.016 39.098C784.016 40.3943 783.054 41.0709 781.639 41.0709ZM789.898 41.0147V38.4214H787.296V41.0149H785.883V34.6446H787.296V37.1249H789.898V34.6443H791.312V41.0146L789.898 41.0147ZM814.219 41.0147L811.222 37.0122V41.0147H809.865V34.6445H811.165L814.164 38.7032V34.6443H815.521V41.0146L814.219 41.0147ZM786.788 49.6397L784.808 46.9338L784.073 47.723V49.6397H782.659V43.2695H784.073V46.0881L786.675 43.2695H788.37L785.769 45.9755L788.485 49.6397H786.788ZM790.067 49.6397V43.2695H794.819V44.5097H791.425V45.8064H794.424V47.0464H791.425V48.3995H794.876V49.6397H790.067ZM803.642 49.6397H804.999V43.2696H803.642V49.6397ZM807.093 49.6397V43.2695H811.845V44.5097H808.508V45.8064H811.447V47.0464H808.508V48.3995H811.9V49.6397H807.093ZM813.994 49.6397V43.2695H815.407V48.3995H818.576V49.6397H813.994ZM822.76 49.6397H820.271V43.2695H822.76C824.797 43.2695 826.154 44.6789 826.154 46.4264V46.4828C826.154 48.2868 824.797 49.6397 822.76 49.6397ZM824.684 46.4828C824.684 45.3553 823.892 44.5661 822.76 44.5661H821.685V48.3995H822.76C823.892 48.3995 824.684 47.6103 824.684 46.4828ZM767.727 39.8307C766.538 39.8307 765.748 38.9289 765.748 37.8576V37.8013C765.748 36.7301 766.482 35.8282 767.613 35.8282C768.235 35.7718 768.802 36.0538 769.197 36.5047L770.102 35.4335C769.48 34.8699 768.632 34.4752 767.613 34.5317C765.633 34.5317 764.22 36.0538 764.276 37.8576C764.333 39.718 765.748 41.1273 767.727 41.0709C768.745 41.0709 769.649 40.6201 770.214 39.9434L769.254 39.0415C768.915 39.4925 768.349 39.7742 767.727 39.8306V39.8307ZM798.438 34.6443H799.965V41.0146H798.608V36.8431L796.798 39.5491H796.743L794.931 36.8431V41.0149H793.631V34.6446H795.101L796.798 37.2942L798.438 34.6443ZM804.209 34.6443L801.493 41.0146H802.964L803.529 39.5489H806.244L806.811 41.0147H808.281L805.566 34.6445L804.209 34.6443ZM804.039 38.3087L804.887 36.2792L805.736 38.3087H804.039ZM777.058 43.2693L774.344 49.6397H775.758L776.38 48.2304H779.039L779.66 49.6397H781.074L778.36 43.2695L777.058 43.2693ZM776.833 46.9902L777.68 44.9044L778.53 46.9902H776.833ZM798.27 44.5661V45.919H801.267V47.2156H798.27V49.6397H796.856V43.2695H801.72V44.5661H798.27ZM772.816 43.2693L771.346 47.723L769.877 43.2695H768.517L767.048 47.723L765.578 43.2695H764.051L766.368 49.6397H767.783L769.197 45.2989L770.667 49.6397H772.024L774.344 43.2695L772.816 43.2693ZM824.457 39.436L825.192 38.5906L824.344 37.6886L823.665 38.4214L822.873 37.4631C823.382 37.1812 823.722 36.6174 823.722 36.0538C823.665 35.1519 822.987 34.5317 822.082 34.5317C821.63 34.5317 821.233 34.7008 820.95 34.9826C820.668 35.2644 820.498 35.659 820.498 36.1101C820.555 36.6174 820.838 37.0122 821.063 37.294C820.328 37.5758 819.763 38.3652 819.818 39.1544C819.876 40.2252 820.78 41.1273 821.912 41.1273C822.535 41.1273 823.212 40.7891 823.665 40.2819L824.232 41.0146H825.872L824.457 39.436ZM822.93 39.3797C822.59 39.7742 822.252 39.9434 821.912 39.9434C821.46 39.9434 821.063 39.6053 821.063 39.098C821.008 38.8159 821.233 38.4214 821.855 38.1394L822.93 39.3797ZM822.138 36.7301C821.968 36.561 821.743 36.3356 821.685 36.1101C821.685 35.8847 821.798 35.659 822.138 35.6028C822.42 35.6028 822.59 35.8282 822.59 36.11C822.59 36.3918 822.307 36.6173 822.138 36.7301Z" fill="#717271"/>
<path d="M1027.49 32.5617C1027.49 33.5407 1027.24 34.6761 1026.52 35.6813H1028.55V19.9912H1022.06V26.4008C1025.57 27.4896 1027.49 29.7403 1027.49 32.5617Z" fill="#213E99"/>
<path d="M1016.26 25.8423C1017.73 25.8423 1019.09 26.1853 1020.14 26.4611C1017.93 26.0719 1014.5 26.6348 1012.73 28.0301V35.6812H1019.23V26.9764C1020.34 27.1778 1021.4 27.6083 1022.34 28.2406V35.6812H1023.76C1022.43 37.1809 1019.94 38.0938 1017.8 37.7579V38.0724C1023.98 38.5597 1026.59 35.6293 1026.59 32.3346C1026.59 28.4531 1022.95 26.1827 1019.23 25.7216V19.9911H1012.73V25.7855C1008.53 26.6286 1004.41 29.1264 1004.41 33.2675C1004.41 39.6402 1013.31 43.5878 1021.06 43.5878C1032.84 43.5878 1041.9 37.8984 1041.9 29.9056C1041.9 20.2346 1028.82 13.3333 1018.54 13.3333C1006.77 13.3333 998.095 20.8142 998.095 28.807C998.095 32.9436 1000.42 36.412 1003.35 38.8294L1003.57 38.6805C1001.25 36.753 999.158 33.7492 999.158 29.6208C999.77 20.8756 1010.55 15.9492 1020.14 15.9492C1026.92 15.9492 1039.11 17.5173 1039.11 28.8603C1039.11 34.7755 1032.79 42.4693 1019.51 42.4693C1012.71 42.4693 1007.43 38.8294 1007.43 33.593C1007.43 29.0634 1010.98 25.8423 1016.26 25.8423ZM991.106 66.3498V65.4557H993.383V57.7286H987.301V65.4557H989.637V66.3498H981.25V65.4557H983.381V49.7184H981.25V48.8242H989.637V49.7184H987.301V56.6927H993.383V49.7184H991.106V48.8242H999.408V49.7184H997.274V65.4557H999.408V66.3498H991.106ZM1002.62 48.8242H1006.43V50.9009H1002.62V48.8242ZM1000.75 66.3498V65.4557H1002.8V54.6777H1000.75V53.7839H1006.57V65.4557H1008.48V66.3498H1000.75ZM1009.3 66.3498V65.4557H1011.4V47.4121H1009.3V46.5205H1015.21V65.4557H1017.19V66.3498H1009.3ZM1023.11 66.3498C1021.04 66.3498 1019.92 65.2832 1019.92 63.6393V54.6777H1017.87V53.7836H1019.92V48.7981C1021.07 48.7981 1022.28 48.8242 1023.46 48.7981V53.7836H1026.4V54.6777H1023.46V65.4557H1026.46V66.3498H1023.11ZM1041.1 59.7769C1040.78 55.0206 1036.81 53.3793 1034.07 53.3793C1030.98 53.3793 1026.83 55.3093 1026.83 59.978C1026.83 63.3532 1029.31 66.6666 1034.15 66.6666C1038.51 66.6666 1040.3 63.7552 1040.73 62.5727C1041.07 61.7092 1041.16 60.6994 1041.1 59.7769ZM1034.07 65.9455C1032.74 65.9455 1031.93 65.2832 1031.56 64.5618C1031.33 64.1291 1031.01 63.4975 1031.01 59.9215C1031.01 57.2701 1031.07 54.2143 1034.04 54.2143C1035.22 54.2143 1036.11 54.7042 1036.6 55.8015C1036.78 56.2035 1036.98 56.6078 1037.01 59.8053C1037.03 62.7477 1037.03 65.9455 1034.07 65.9455ZM1051.26 66.3498V65.4557H1052.93V58.0483C1052.93 56.3759 1052.93 54.7345 1051.08 54.7345C1050.05 54.7345 1048.35 55.7705 1047.94 57.4732C1047.8 57.9911 1047.83 58.5401 1047.83 59.9212V65.4557H1049.73V66.3498H1042.01V65.4557H1044.05V54.6777H1042.01V53.7836H1047.83V55.6852C1048.46 54.8789 1048.98 54.2993 1050.22 53.812C1050.94 53.5087 1051.71 53.3519 1052.5 53.3509C1052.73 53.3509 1053.42 53.3509 1054.22 53.5801C1056.65 54.2993 1056.76 56.1463 1056.76 57.4732V65.4557H1058.75V66.3498H1051.26Z" fill="#213E99"/>
</svg>
