<svg width="36" height="40" viewBox="0 0 36 40" fill="none" xmlns="http://www.w3.org/2000/svg">
<path d="M30.1534 5.03406C26.9072 1.78781 22.591 0 18 0C13.4089 0 9.09278 1.78781 5.84653 5.03406C-3.59058 14.4712 0.891686 30.739 13.9375 33.8911V38.0469C13.9375 39.1238 14.8136 40 15.8906 40H20.1093C21.1863 40 22.0625 39.1238 22.0625 38.0469V33.8911C35.1208 30.7359 39.5839 14.4645 30.1534 5.03406ZM19.7187 37.6562H16.2812V34.2899C17.4211 34.403 18.5789 34.403 19.7187 34.2899V37.6562ZM20.6802 31.7902C11.645 33.4389 3.15622 26.5484 3.15622 17.1875C3.15622 9.00266 9.81504 2.34375 18 2.34375C26.1849 2.34375 32.8437 9.00266 32.8437 17.1875C32.8437 24.3529 27.7408 30.5017 20.6802 31.7902Z" fill="#24AB70"/>
</svg>
